# xmcd CD database file
#
# Track frame offsets:
#	150
#	20091
#	35310
#	51452
#	70639
#
# Disc length: 1055 seconds
#
# Revision: 0
# Processed by: cddbd v1.5.2PL0 Copyright (c) Steve Scherf et al.
# Submitted via: CDex 1.70beta2
#
DISCID=3e041d05
DTITLE=Jeanette Berger - Blues Prayer
DYEAR=2015
DGENRE=Blues
TTITLE0=Walking Back Home
TTITLE1=Oh Woman
TTITLE2=Such A Kiss
TTITLE3=Blues Prayer
TTITLE4=Cat's Night
EXTD=YEAR: 2015
EXTT0=
EXTT1=
EXTT2=
EXTT3=
EXTT4=
PLAYORDER=
